<svg width="57" height="57" viewBox="0 0 57 57" fill="none" xmlns="http://www.w3.org/2000/svg">
<path d="M3.125 0.375C1.39912 0.375 0 1.77412 0 3.5V22.25C0 23.9759 1.39912 25.375 3.125 25.375H21.875C23.6009 25.375 25 23.9759 25 22.25V3.5C25 1.77412 23.6009 0.375 21.875 0.375H3.125ZM3.125 31.625C1.39912 31.625 0 33.0241 0 34.75V53.5C0 55.2259 1.39912 56.625 3.125 56.625H21.875C23.6009 56.625 25 55.2259 25 53.5V34.75C25 33.0241 23.6009 31.625 21.875 31.625H3.125ZM34.375 31.625C32.6491 31.625 31.25 33.0241 31.25 34.75V53.5C31.25 55.2259 32.6491 56.625 34.375 56.625H53.125C54.8509 56.625 56.25 55.2259 56.25 53.5V34.75C56.25 33.0241 54.8509 31.625 53.125 31.625H34.375ZM40.625 25.375V16H31.25V9.75H40.625V0.375H46.875V9.75H56.25V16H46.875V25.375H40.625Z" fill="white"/>
</svg>
