<svg width="57" height="57" viewBox="0 0 57 57" fill="none" xmlns="http://www.w3.org/2000/svg">
<path d="M21.875 16H34.375V11.3125C34.375 5.27187 39.2719 0.375 45.3125 0.375C51.3531 0.375 56.25 5.27187 56.25 11.3125C56.25 17.3531 51.3531 22.25 45.3125 22.25H40.625V34.75H45.3125C51.3531 34.75 56.25 39.6469 56.25 45.6875C56.25 51.7281 51.3531 56.625 45.3125 56.625C39.2719 56.625 34.375 51.7281 34.375 45.6875V41H21.875V45.6875C21.875 51.7281 16.9781 56.625 10.9375 56.625C4.89687 56.625 0 51.7281 0 45.6875C0 39.6469 4.89687 34.75 10.9375 34.75H15.625V22.25H10.9375C4.89687 22.25 0 17.3531 0 11.3125C0 5.27187 4.89687 0.375 10.9375 0.375C16.9781 0.375 21.875 5.27187 21.875 11.3125V16ZM15.625 16V11.3125C15.625 8.72366 13.5263 6.625 10.9375 6.625C8.34866 6.625 6.25 8.72366 6.25 11.3125C6.25 13.9013 8.34866 16 10.9375 16H15.625ZM15.625 41H10.9375C8.34866 41 6.25 43.0988 6.25 45.6875C6.25 48.2762 8.34866 50.375 10.9375 50.375C13.5263 50.375 15.625 48.2762 15.625 45.6875V41ZM40.625 16H45.3125C47.9012 16 50 13.9013 50 11.3125C50 8.72366 47.9012 6.625 45.3125 6.625C42.7238 6.625 40.625 8.72366 40.625 11.3125V16ZM40.625 41V45.6875C40.625 48.2762 42.7238 50.375 45.3125 50.375C47.9012 50.375 50 48.2762 50 45.6875C50 43.0988 47.9012 41 45.3125 41H40.625ZM21.875 22.25V34.75H34.375V22.25H21.875Z" fill="white"/>
</svg>
