<svg width="25" height="25" viewBox="0 0 25 25" fill="none" xmlns="http://www.w3.org/2000/svg">
<path d="M13.7781 2.50073C14.9035 2.50259 15.4738 2.50855 15.9666 2.52322L16.1607 2.52956C16.3849 2.53753 16.6061 2.54753 16.8728 2.56003C17.9369 2.6092 18.6628 2.77753 19.3003 3.02503C19.9594 3.2792 20.5161 3.62253 21.0719 4.17837C21.6269 4.7342 21.9703 5.29253 22.2253 5.95003C22.4719 6.5867 22.6403 7.31337 22.6903 8.37753C22.7022 8.6442 22.7118 8.8654 22.7197 9.08964L22.726 9.28373C22.7406 9.77647 22.7473 10.3469 22.7494 11.4723L22.7502 12.2179C22.7503 12.309 22.7503 12.403 22.7503 12.5L22.7502 12.7821L22.7496 13.5278C22.7477 14.6532 22.7418 15.2236 22.7271 15.7163L22.7207 15.9104C22.7128 16.1347 22.7028 16.3559 22.6903 16.6225C22.6411 17.6867 22.4719 18.4125 22.2253 19.05C21.9711 19.7092 21.6269 20.2659 21.0719 20.8217C20.5161 21.3767 19.9569 21.72 19.3003 21.975C18.6628 22.2217 17.9369 22.39 16.8728 22.44C16.6061 22.4519 16.3849 22.4616 16.1607 22.4694L15.9666 22.4757C15.4738 22.4904 14.9035 22.497 13.7781 22.4992L13.0324 22.5C12.9413 22.5 12.8473 22.5 12.7503 22.5H12.4682L11.7225 22.4993C10.5971 22.4975 10.0267 22.4915 9.53397 22.4768L9.33989 22.4705C9.11564 22.4625 8.89444 22.4525 8.62778 22.44C7.56361 22.3909 6.83861 22.2217 6.20028 21.975C5.54194 21.7209 4.98444 21.3767 4.42861 20.8217C3.87278 20.2659 3.53028 19.7067 3.27528 19.05C3.02778 18.4125 2.86028 17.6867 2.81028 16.6225C2.7984 16.3559 2.78871 16.1347 2.78086 15.9104L2.77457 15.7163C2.75994 15.2236 2.75327 14.6532 2.75111 13.5278L2.75098 11.4723C2.75284 10.3469 2.75879 9.77647 2.77346 9.28373L2.77981 9.08964C2.78778 8.8654 2.79778 8.6442 2.81028 8.37753C2.85944 7.31253 3.02778 6.58753 3.27528 5.95003C3.52944 5.2917 3.87278 4.7342 4.42861 4.17837C4.98444 3.62253 5.54278 3.28003 6.20028 3.02503C6.83778 2.77753 7.56278 2.61003 8.62778 2.56003C8.89444 2.54816 9.11564 2.53847 9.33989 2.53062L9.53397 2.52433C10.0267 2.50969 10.5971 2.50302 11.7225 2.50086L13.7781 2.50073ZM12.7503 7.50003C9.98738 7.50003 7.75028 9.73956 7.75028 12.5C7.75028 15.2629 9.98981 17.5 12.7503 17.5C15.5132 17.5 17.7503 15.2605 17.7503 12.5C17.7503 9.73713 15.5107 7.50003 12.7503 7.50003ZM12.7503 9.50003C14.4072 9.50003 15.7503 10.8427 15.7503 12.5C15.7503 14.1569 14.4076 15.5 12.7503 15.5C11.0934 15.5 9.75028 14.1574 9.75028 12.5C9.75028 10.8431 11.0929 9.50003 12.7503 9.50003ZM18.0003 6.00003C17.311 6.00003 16.7503 6.55994 16.7503 7.24918C16.7503 7.93843 17.3102 8.4992 18.0003 8.4992C18.6895 8.4992 19.2503 7.9393 19.2503 7.24918C19.2503 6.55994 18.6886 5.99917 18.0003 6.00003Z" fill="white"/>
</svg>
