<svg width="25" height="25" viewBox="0 0 25 25" fill="none" xmlns="http://www.w3.org/2000/svg">
<path d="M7.44048 5.49993C7.44011 6.31424 6.94608 7.04702 6.19134 7.35273C5.4366 7.65845 4.57187 7.47605 4.0049 6.89155C3.43793 6.30704 3.28195 5.43715 3.6105 4.69207C3.93906 3.94699 4.68654 3.4755 5.50048 3.49993C6.58155 3.53238 7.44097 4.41837 7.44048 5.49993ZM7.50048 8.97993H3.50048V21.4999H7.50048V8.97993ZM13.8205 8.97993H9.84048V21.4999H13.7805V14.9299C13.7805 11.2699 18.5505 10.9299 18.5505 14.9299V21.4999H22.5005V13.5699C22.5005 7.39993 15.4405 7.62993 13.7805 10.6599L13.8205 8.97993Z" fill="white"/>
</svg>
