<svg width="22" height="23" viewBox="0 0 22 23" fill="none" xmlns="http://www.w3.org/2000/svg">
<path d="M21.1922 5.17882C20.4288 5.51652 19.6192 5.73831 18.7903 5.83687C19.6636 5.31408 20.3171 4.49166 20.629 3.52281C19.8084 4.01037 18.9102 4.35353 17.9735 4.53737C17.1828 3.69382 16.0777 3.21579 14.9215 3.2171C12.6123 3.2171 10.7394 5.08937 10.7394 7.39959C10.7394 7.72734 10.777 8.04518 10.8473 8.35185C7.37015 8.17681 4.28975 6.51281 2.22646 3.98217C1.85497 4.62043 1.65973 5.34594 1.66072 6.08443C1.66072 7.53535 2.39928 8.816 3.52117 9.56576C2.85705 9.54476 2.20756 9.3654 1.62686 9.04249C1.62622 9.06006 1.62622 9.07763 1.62622 9.09424C1.62622 11.1212 3.06787 12.812 4.98167 13.1959C4.62248 13.2931 4.252 13.3422 3.8799 13.3419C3.60965 13.3419 3.34739 13.317 3.09247 13.2681C3.62499 14.9293 5.16854 16.1387 6.99928 16.1719C5.51781 17.3346 3.68837 17.9654 1.80511 17.9627C1.4718 17.963 1.13877 17.9433 0.8078 17.9039C2.71972 19.133 4.9452 19.7853 7.2181 19.7829C14.9113 19.7829 19.1177 13.4103 19.1177 7.88387C19.1177 7.70306 19.1133 7.52163 19.1053 7.34273C19.924 6.75121 20.6307 6.01844 21.1922 5.17882Z" fill="white"/>
</svg>
